<svg width="70" height="70" viewBox="0 0 70 70" fill="none" xmlns="http://www.w3.org/2000/svg">
<path d="M0 17.5C0 7.83502 7.83502 0 17.5 0H52.5C62.165 0 70 7.83502 70 17.5V52.5C70 62.165 62.165 70 52.5 70H17.5C7.83502 70 0 62.165 0 52.5V17.5Z" fill="#333A4C"/>
<path fill-rule="evenodd" clip-rule="evenodd" d="M19.4408 23.4028C21.0487 21.1828 24.2829 17.6009 27.6193 15.8184C30.9558 14.0358 35.8375 12.5562 42.7338 13.1308C49.63 13.7053 53.2642 16.5327 55.0605 17.9406C56.8569 19.3485 59.1676 22.4127 60.5093 26.1128C61.8511 29.8129 62.9908 33.6987 63.0022 39.5916C63.0136 45.4845 61.7782 50.2481 58.7022 52.9842C58.6244 53.0534 58.5459 53.1213 58.4665 53.1879C55.4067 55.7575 51.185 56.4493 47.7405 55.1927C44.2068 53.9034 43.4212 52.6761 42.3811 50.1355C41.3411 47.595 40.9011 43.6916 40.8957 40.9319C40.8926 39.3223 40.9462 38.5549 40.9908 37.9152C41.0227 37.4581 41.0501 37.0663 41.0489 36.4791C41.0462 35.0702 40.1363 35.1663 39.9698 36.4403C39.8032 37.7143 39.7084 39.2842 39.7103 40.2433C39.7126 41.4628 39.803 44.6278 39.9889 46.3383C40.1748 48.0487 40.7336 50.6565 41.2896 51.9064C41.8456 53.1562 42.905 54.6678 42.905 54.6678C42.905 54.6678 40.5279 55.901 35.8486 55.9742C31.1693 56.0474 28.5548 56.0023 24.6537 55.5718C20.7527 55.1412 16.0192 54.1124 12.8694 52.8968C9.71954 51.6813 8.12777 50.5639 5.89435 48.5503C3.66094 46.5367 1.86204 43.4876 3.95216 42.081C5.7181 40.8926 6.48885 41.5958 7.27304 42.3112C7.417 42.4426 7.56141 42.5743 7.71252 42.6949C7.8196 42.7803 7.94419 42.8876 8.08647 43.0101C8.78707 43.6133 9.91676 44.586 11.4991 45.1391C13.4027 45.8045 13.9837 45.8039 14.9885 45.1457C16.126 44.4007 15.8879 40.9806 15.759 39.1276C15.7294 38.7027 15.7056 38.3602 15.7053 38.1513C15.7052 38.0213 15.7028 37.8544 15.7 37.6564V37.6563V37.6563C15.6784 36.148 15.6311 32.8357 16.3599 30.3025C17.1844 27.4366 17.833 25.6229 19.4408 23.4028ZM24.2203 43.2388C24.1868 43.0116 24.1693 42.7778 24.1693 42.5391C24.1693 40.3271 25.6719 38.534 27.5255 38.534C29.379 38.534 30.8817 40.3271 30.8817 42.5391C30.8817 44.204 30.0304 45.6316 28.819 46.236C31.8159 46.2065 34.2379 43.2178 34.2379 39.5353C34.2379 35.8345 31.7917 32.8344 28.7743 32.8344C25.7568 32.8344 23.3107 35.8345 23.3107 39.5353C23.3107 40.9045 23.6456 42.1779 24.2203 43.2388Z" fill="white"/>
</svg>
